<?xml version="1.0" encoding="UTF-8"?>
<svg xmlns="http://www.w3.org/2000/svg" width="1024" height="1024" viewBox="0 0 1024 1024" role="img" aria-labelledby="title desc">
  <title id="title">Agent OS app icon</title>
  <desc id="desc">The rounded Agent OS A mark on a near-black macOS app-icon tile.</desc>
  <rect x="64" y="64" width="896" height="896" rx="220" fill="#111111"/>
  <g transform="translate(171.7015 165.8746) scale(0.5597015)">
    <path fill="#ffffff" d="M608 116C520 116 465 165 425 247L107 809C72 871 99 964 164 1016C230 1068 340 1078 406 1017C433 992 450 953 470 913L550 769C566 741 585 751 608 751C631 751 650 741 666 769L746 913C766 953 783 992 810 1017C876 1078 986 1068 1052 1016C1117 964 1144 871 1109 809L791 247C751 165 696 116 608 116ZM608 426C676 426 730 462 763 527L955 866C968 889 958 913 942 913C931 913 924 906 917 894L770 630C750 692 691 744 608 744C525 744 466 692 446 630L299 894C292 906 285 913 274 913C258 913 248 889 261 866L453 527C486 462 540 426 608 426Z"/>
    <path fill="#111111" d="M608 700C649 700 668 749 690 790L749 900C776 951 798 1007 842 1042H374C418 1007 440 951 467 900L526 790C548 749 567 700 608 700Z"/>
  </g>
</svg>
